<?xml version="1.0" encoding="UTF-8" standalone="no"?>
<!DOCTYPE svg PUBLIC "-//W3C//DTD SVG 1.1//EN"
 "http://www.w3.org/Graphics/SVG/1.1/DTD/svg11.dtd">
<!-- Generated by graphviz version 2.40.1 (20161225.0304)
 -->
<!-- Title: controllers_diagram Pages: 1 -->
<svg width="489pt" height="579pt"
 viewBox="0.00 0.00 489.00 579.00" xmlns="http://www.w3.org/2000/svg" xmlns:xlink="http://www.w3.org/1999/xlink">
<g id="graph0" class="graph" transform="scale(1 1) rotate(0) translate(4 575)">
<title>controllers_diagram</title>
<polygon fill="transparent" stroke="transparent" points="-4,4 -4,-575 485,-575 485,4 -4,4"/>
<!-- _diagram_info -->
<g id="node1" class="node">
<title>_diagram_info</title>
<text text-anchor="start" x="27" y="-63.6" font-family="Times,serif" font-size="13.00" fill="#000000">Controllers diagram</text>
<text text-anchor="start" x="27" y="-49.6" font-family="Times,serif" font-size="13.00" fill="#000000">Date: May 14 2020 &#45; 19:24</text>
<text text-anchor="start" x="27" y="-35.6" font-family="Times,serif" font-size="13.00" fill="#000000">Migration version: 20200415083331</text>
<text text-anchor="start" x="27" y="-21.6" font-family="Times,serif" font-size="13.00" fill="#000000">Generated by RailRoady 1.5.3</text>
<text text-anchor="start" x="27" y="-7.6" font-family="Times,serif" font-size="13.00" fill="#000000">http://railroady.prestonlee.com</text>
</g>
<!-- ScriptStepsController -->
<g id="node2" class="node">
<title>ScriptStepsController</title>
<path fill="none" stroke="#000000" d="M183,-342.5C183,-342.5 293,-342.5 293,-342.5 299,-342.5 305,-348.5 305,-354.5 305,-354.5 305,-558.5 305,-558.5 305,-564.5 299,-570.5 293,-570.5 293,-570.5 183,-570.5 183,-570.5 177,-570.5 171,-564.5 171,-558.5 171,-558.5 171,-354.5 171,-354.5 171,-348.5 177,-342.5 183,-342.5"/>
<text text-anchor="middle" x="238" y="-555.3" font-family="Times,serif" font-size="14.00" fill="#000000">ScriptStepsController</text>
<polyline fill="none" stroke="#000000" points="171,-547.5 305,-547.5 "/>
<text text-anchor="start" x="179" y="-532.3" font-family="Times,serif" font-size="14.00" fill="#000000">add_step</text>
<text text-anchor="start" x="179" y="-517.3" font-family="Times,serif" font-size="14.00" fill="#000000">create</text>
<text text-anchor="start" x="179" y="-502.3" font-family="Times,serif" font-size="14.00" fill="#000000">destroy</text>
<text text-anchor="start" x="179" y="-487.3" font-family="Times,serif" font-size="14.00" fill="#000000">edit</text>
<text text-anchor="start" x="179" y="-472.3" font-family="Times,serif" font-size="14.00" fill="#000000">index</text>
<text text-anchor="start" x="179" y="-457.3" font-family="Times,serif" font-size="14.00" fill="#000000">new</text>
<text text-anchor="start" x="179" y="-442.3" font-family="Times,serif" font-size="14.00" fill="#000000">run_script</text>
<text text-anchor="start" x="179" y="-427.3" font-family="Times,serif" font-size="14.00" fill="#000000">show</text>
<text text-anchor="start" x="179" y="-412.3" font-family="Times,serif" font-size="14.00" fill="#000000">update</text>
<polyline fill="none" stroke="#000000" points="171,-404.5 305,-404.5 "/>
<polyline fill="none" stroke="#000000" points="171,-380.5 305,-380.5 "/>
<text text-anchor="start" x="179" y="-365.3" font-family="Times,serif" font-size="14.00" fill="#000000">_layout</text>
<text text-anchor="start" x="179" y="-350.3" font-family="Times,serif" font-size="14.00" fill="#000000">script_step_params</text>
</g>
<!-- StepsController -->
<g id="node3" class="node">
<title>StepsController</title>
<path fill="none" stroke="#000000" d="M392,-361.5C392,-361.5 469,-361.5 469,-361.5 475,-361.5 481,-367.5 481,-373.5 481,-373.5 481,-547.5 481,-547.5 481,-553.5 475,-559.5 469,-559.5 469,-559.5 392,-559.5 392,-559.5 386,-559.5 380,-553.5 380,-547.5 380,-547.5 380,-373.5 380,-373.5 380,-367.5 386,-361.5 392,-361.5"/>
<text text-anchor="middle" x="430.5" y="-544.3" font-family="Times,serif" font-size="14.00" fill="#000000">StepsController</text>
<polyline fill="none" stroke="#000000" points="380,-536.5 481,-536.5 "/>
<text text-anchor="start" x="388" y="-521.3" font-family="Times,serif" font-size="14.00" fill="#000000">create</text>
<text text-anchor="start" x="388" y="-506.3" font-family="Times,serif" font-size="14.00" fill="#000000">destroy</text>
<text text-anchor="start" x="388" y="-491.3" font-family="Times,serif" font-size="14.00" fill="#000000">edit</text>
<text text-anchor="start" x="388" y="-476.3" font-family="Times,serif" font-size="14.00" fill="#000000">index</text>
<text text-anchor="start" x="388" y="-461.3" font-family="Times,serif" font-size="14.00" fill="#000000">new</text>
<text text-anchor="start" x="388" y="-446.3" font-family="Times,serif" font-size="14.00" fill="#000000">show</text>
<text text-anchor="start" x="388" y="-431.3" font-family="Times,serif" font-size="14.00" fill="#000000">update</text>
<polyline fill="none" stroke="#000000" points="380,-423.5 481,-423.5 "/>
<polyline fill="none" stroke="#000000" points="380,-399.5 481,-399.5 "/>
<text text-anchor="start" x="388" y="-384.3" font-family="Times,serif" font-size="14.00" fill="#000000">_layout</text>
<text text-anchor="start" x="388" y="-369.3" font-family="Times,serif" font-size="14.00" fill="#000000">step_params</text>
</g>
<!-- ExecScriptsController -->
<g id="node4" class="node">
<title>ExecScriptsController</title>
<path fill="none" stroke="#000000" d="M354,-95.5C354,-95.5 467,-95.5 467,-95.5 473,-95.5 479,-101.5 479,-107.5 479,-107.5 479,-311.5 479,-311.5 479,-317.5 473,-323.5 467,-323.5 467,-323.5 354,-323.5 354,-323.5 348,-323.5 342,-317.5 342,-311.5 342,-311.5 342,-107.5 342,-107.5 342,-101.5 348,-95.5 354,-95.5"/>
<text text-anchor="middle" x="410.5" y="-308.3" font-family="Times,serif" font-size="14.00" fill="#000000">ExecScriptsController</text>
<polyline fill="none" stroke="#000000" points="342,-300.5 479,-300.5 "/>
<text text-anchor="start" x="350" y="-285.3" font-family="Times,serif" font-size="14.00" fill="#000000">create</text>
<text text-anchor="start" x="350" y="-270.3" font-family="Times,serif" font-size="14.00" fill="#000000">create_script_step</text>
<text text-anchor="start" x="350" y="-255.3" font-family="Times,serif" font-size="14.00" fill="#000000">create_steps</text>
<text text-anchor="start" x="350" y="-240.3" font-family="Times,serif" font-size="14.00" fill="#000000">destroy</text>
<text text-anchor="start" x="350" y="-225.3" font-family="Times,serif" font-size="14.00" fill="#000000">edit</text>
<text text-anchor="start" x="350" y="-210.3" font-family="Times,serif" font-size="14.00" fill="#000000">index</text>
<text text-anchor="start" x="350" y="-195.3" font-family="Times,serif" font-size="14.00" fill="#000000">new</text>
<text text-anchor="start" x="350" y="-180.3" font-family="Times,serif" font-size="14.00" fill="#000000">show</text>
<text text-anchor="start" x="350" y="-165.3" font-family="Times,serif" font-size="14.00" fill="#000000">update</text>
<polyline fill="none" stroke="#000000" points="342,-157.5 479,-157.5 "/>
<polyline fill="none" stroke="#000000" points="342,-133.5 479,-133.5 "/>
<text text-anchor="start" x="350" y="-118.3" font-family="Times,serif" font-size="14.00" fill="#000000">_layout</text>
<text text-anchor="start" x="350" y="-103.3" font-family="Times,serif" font-size="14.00" fill="#000000">exec_script_params</text>
</g>
<!-- AllScriptsDescriptionsController -->
<g id="node5" class="node">
<title>AllScriptsDescriptionsController</title>
<path fill="none" stroke="#000000" d="M126,-114.5C126,-114.5 297,-114.5 297,-114.5 303,-114.5 309,-120.5 309,-126.5 309,-126.5 309,-285.5 309,-285.5 309,-291.5 303,-297.5 297,-297.5 297,-297.5 126,-297.5 126,-297.5 120,-297.5 114,-291.5 114,-285.5 114,-285.5 114,-126.5 114,-126.5 114,-120.5 120,-114.5 126,-114.5"/>
<text text-anchor="middle" x="211.5" y="-282.3" font-family="Times,serif" font-size="14.00" fill="#000000">AllScriptsDescriptionsController</text>
<polyline fill="none" stroke="#000000" points="114,-274.5 309,-274.5 "/>
<text text-anchor="start" x="122" y="-259.3" font-family="Times,serif" font-size="14.00" fill="#000000">create</text>
<text text-anchor="start" x="122" y="-244.3" font-family="Times,serif" font-size="14.00" fill="#000000">edit</text>
<text text-anchor="start" x="122" y="-229.3" font-family="Times,serif" font-size="14.00" fill="#000000">index</text>
<text text-anchor="start" x="122" y="-214.3" font-family="Times,serif" font-size="14.00" fill="#000000">new</text>
<text text-anchor="start" x="122" y="-199.3" font-family="Times,serif" font-size="14.00" fill="#000000">show</text>
<text text-anchor="start" x="122" y="-184.3" font-family="Times,serif" font-size="14.00" fill="#000000">update</text>
<polyline fill="none" stroke="#000000" points="114,-176.5 309,-176.5 "/>
<polyline fill="none" stroke="#000000" points="114,-152.5 309,-152.5 "/>
<text text-anchor="start" x="122" y="-137.3" font-family="Times,serif" font-size="14.00" fill="#000000">_layout</text>
<text text-anchor="start" x="122" y="-122.3" font-family="Times,serif" font-size="14.00" fill="#000000">all_scripts_description_params</text>
</g>
<!-- ApplicationController -->
<g id="node6" class="node">
<title>ApplicationController</title>
<path fill="none" stroke="#000000" d="M12,-437.5C12,-437.5 124,-437.5 124,-437.5 130,-437.5 136,-443.5 136,-449.5 136,-449.5 136,-519.5 136,-519.5 136,-525.5 130,-531.5 124,-531.5 124,-531.5 12,-531.5 12,-531.5 6,-531.5 0,-525.5 0,-519.5 0,-519.5 0,-449.5 0,-449.5 0,-443.5 6,-437.5 12,-437.5"/>
<text text-anchor="middle" x="68" y="-516.3" font-family="Times,serif" font-size="14.00" fill="#000000">ApplicationController</text>
<polyline fill="none" stroke="#000000" points="0,-508.5 136,-508.5 "/>
<polyline fill="none" stroke="#000000" points="0,-484.5 136,-484.5 "/>
<polyline fill="none" stroke="#000000" points="0,-460.5 136,-460.5 "/>
<text text-anchor="start" x="8" y="-445.3" font-family="Times,serif" font-size="14.00" fill="#000000">_layout</text>
</g>
</g>
</svg>
