<?xml version="1.0" encoding="UTF-8" standalone="no"?>
<!DOCTYPE svg PUBLIC "-//W3C//DTD SVG 1.1//EN"
 "http://www.w3.org/Graphics/SVG/1.1/DTD/svg11.dtd">
<!-- Generated by graphviz version 2.40.1 (20161225.0304)
 -->
<!-- Title: models_diagram Pages: 1 -->
<svg width="916pt" height="348pt"
 viewBox="0.00 0.00 915.50 348.00" xmlns="http://www.w3.org/2000/svg" xmlns:xlink="http://www.w3.org/1999/xlink">
<g id="graph0" class="graph" transform="scale(1 1) rotate(0) translate(4 344)">
<title>models_diagram</title>
<polygon fill="transparent" stroke="transparent" points="-4,4 -4,-344 911.5,-344 911.5,4 -4,4"/>
<!-- _diagram_info -->
<g id="node1" class="node">
<title>_diagram_info</title>
<text text-anchor="start" x="8" y="-296.1" font-family="Times,serif" font-size="13.00" fill="#000000">Models diagram</text>
<text text-anchor="start" x="8" y="-282.1" font-family="Times,serif" font-size="13.00" fill="#000000">Date: May 14 2020 &#45; 19:24</text>
<text text-anchor="start" x="8" y="-268.1" font-family="Times,serif" font-size="13.00" fill="#000000">Migration version: 20200415083331</text>
<text text-anchor="start" x="8" y="-254.1" font-family="Times,serif" font-size="13.00" fill="#000000">Generated by RailRoady 1.5.3</text>
<text text-anchor="start" x="8" y="-240.1" font-family="Times,serif" font-size="13.00" fill="#000000">http://railroady.prestonlee.com</text>
</g>
<!-- ApplicationRecord -->
<g id="node2" class="node">
<title>ApplicationRecord</title>
<ellipse fill="none" stroke="#000000" cx="309" cy="-271.5" rx="77.1866" ry="18"/>
<text text-anchor="middle" x="309" y="-267.8" font-family="Times,serif" font-size="14.00" fill="#000000">ApplicationRecord</text>
</g>
<!-- ScriptStep -->
<g id="node3" class="node">
<title>ScriptStep</title>
<path fill="none" stroke="#000000" d="M416.5,-203.5C416.5,-203.5 593.5,-203.5 593.5,-203.5 599.5,-203.5 605.5,-209.5 605.5,-215.5 605.5,-215.5 605.5,-327.5 605.5,-327.5 605.5,-333.5 599.5,-339.5 593.5,-339.5 593.5,-339.5 416.5,-339.5 416.5,-339.5 410.5,-339.5 404.5,-333.5 404.5,-327.5 404.5,-327.5 404.5,-215.5 404.5,-215.5 404.5,-209.5 410.5,-203.5 416.5,-203.5"/>
<text text-anchor="middle" x="505" y="-324.3" font-family="Times,serif" font-size="14.00" fill="#000000">ScriptStep</text>
<polyline fill="none" stroke="#000000" points="404.5,-316.5 605.5,-316.5 "/>
<text text-anchor="start" x="412.5" y="-301.3" font-family="Times,serif" font-size="14.00" fill="#000000">id :integer</text>
<text text-anchor="start" x="412.5" y="-286.3" font-family="Times,serif" font-size="14.00" fill="#000000">exec_script_id :integer</text>
<text text-anchor="start" x="412.5" y="-271.3" font-family="Times,serif" font-size="14.00" fill="#000000">script_name :varchar</text>
<text text-anchor="start" x="412.5" y="-256.3" font-family="Times,serif" font-size="14.00" fill="#000000">name_step :varchar</text>
<text text-anchor="start" x="412.5" y="-241.3" font-family="Times,serif" font-size="14.00" fill="#000000">created_at :datetime</text>
<text text-anchor="start" x="412.5" y="-226.3" font-family="Times,serif" font-size="14.00" fill="#000000">updated_at :datetime</text>
<text text-anchor="start" x="412.5" y="-211.3" font-family="Times,serif" font-size="14.00" fill="#000000">all_scripts_description_id :integer</text>
</g>
<!-- Step -->
<g id="node6" class="node">
<title>Step</title>
<path fill="none" stroke="#000000" d="M447,-.5C447,-.5 563,-.5 563,-.5 569,-.5 575,-6.5 575,-12.5 575,-12.5 575,-154.5 575,-154.5 575,-160.5 569,-166.5 563,-166.5 563,-166.5 447,-166.5 447,-166.5 441,-166.5 435,-160.5 435,-154.5 435,-154.5 435,-12.5 435,-12.5 435,-6.5 441,-.5 447,-.5"/>
<text text-anchor="middle" x="505" y="-151.3" font-family="Times,serif" font-size="14.00" fill="#000000">Step</text>
<polyline fill="none" stroke="#000000" points="435,-143.5 575,-143.5 "/>
<text text-anchor="start" x="443" y="-128.3" font-family="Times,serif" font-size="14.00" fill="#000000">id :integer</text>
<text text-anchor="start" x="443" y="-113.3" font-family="Times,serif" font-size="14.00" fill="#000000">name_step :varchar</text>
<text text-anchor="start" x="443" y="-98.3" font-family="Times,serif" font-size="14.00" fill="#000000">name_script :varchar</text>
<text text-anchor="start" x="443" y="-83.3" font-family="Times,serif" font-size="14.00" fill="#000000">status :varchar</text>
<text text-anchor="start" x="443" y="-68.3" font-family="Times,serif" font-size="14.00" fill="#000000">rollbacks :integer</text>
<text text-anchor="start" x="443" y="-53.3" font-family="Times,serif" font-size="14.00" fill="#000000">script_step_id :integer</text>
<text text-anchor="start" x="443" y="-38.3" font-family="Times,serif" font-size="14.00" fill="#000000">created_at :datetime</text>
<text text-anchor="start" x="443" y="-23.3" font-family="Times,serif" font-size="14.00" fill="#000000">updated_at :datetime</text>
<text text-anchor="start" x="443" y="-8.3" font-family="Times,serif" font-size="14.00" fill="#000000">exec_script_id :integer</text>
</g>
<!-- ScriptStep&#45;&gt;Step -->
<g id="edge1" class="edge">
<title>ScriptStep&#45;&gt;Step</title>
<path fill="none" stroke="#530dfe" d="M505,-195.2089C505,-189.2127 505,-183.1168 505,-177.0235"/>
<ellipse fill="none" stroke="#530dfe" cx="505" cy="-199.3619" rx="4" ry="4"/>
<polygon fill="#530dfe" stroke="#530dfe" points="505.0001,-176.7896 509.5,-166.7896 505,-171.7896 505,-166.7896 505,-166.7896 505,-166.7896 505,-171.7896 500.5,-166.7897 505.0001,-176.7896 505.0001,-176.7896"/>
</g>
<!-- AllScriptsDescription -->
<g id="node4" class="node">
<title>AllScriptsDescription</title>
<path fill="none" stroke="#000000" d="M636,-218.5C636,-218.5 746,-218.5 746,-218.5 752,-218.5 758,-224.5 758,-230.5 758,-230.5 758,-312.5 758,-312.5 758,-318.5 752,-324.5 746,-324.5 746,-324.5 636,-324.5 636,-324.5 630,-324.5 624,-318.5 624,-312.5 624,-312.5 624,-230.5 624,-230.5 624,-224.5 630,-218.5 636,-218.5"/>
<text text-anchor="middle" x="691" y="-309.3" font-family="Times,serif" font-size="14.00" fill="#000000">AllScriptsDescription</text>
<polyline fill="none" stroke="#000000" points="624,-301.5 758,-301.5 "/>
<text text-anchor="start" x="632" y="-286.3" font-family="Times,serif" font-size="14.00" fill="#000000">id :integer</text>
<text text-anchor="start" x="632" y="-271.3" font-family="Times,serif" font-size="14.00" fill="#000000">name_script :varchar</text>
<text text-anchor="start" x="632" y="-256.3" font-family="Times,serif" font-size="14.00" fill="#000000">steps :text</text>
<text text-anchor="start" x="632" y="-241.3" font-family="Times,serif" font-size="14.00" fill="#000000">created_at :datetime</text>
<text text-anchor="start" x="632" y="-226.3" font-family="Times,serif" font-size="14.00" fill="#000000">updated_at :datetime</text>
</g>
<!-- ExecScript -->
<g id="node5" class="node">
<title>ExecScript</title>
<path fill="none" stroke="#000000" d="M788.5,-203.5C788.5,-203.5 895.5,-203.5 895.5,-203.5 901.5,-203.5 907.5,-209.5 907.5,-215.5 907.5,-215.5 907.5,-327.5 907.5,-327.5 907.5,-333.5 901.5,-339.5 895.5,-339.5 895.5,-339.5 788.5,-339.5 788.5,-339.5 782.5,-339.5 776.5,-333.5 776.5,-327.5 776.5,-327.5 776.5,-215.5 776.5,-215.5 776.5,-209.5 782.5,-203.5 788.5,-203.5"/>
<text text-anchor="middle" x="842" y="-324.3" font-family="Times,serif" font-size="14.00" fill="#000000">ExecScript</text>
<polyline fill="none" stroke="#000000" points="776.5,-316.5 907.5,-316.5 "/>
<text text-anchor="start" x="784.5" y="-301.3" font-family="Times,serif" font-size="14.00" fill="#000000">id :integer</text>
<text text-anchor="start" x="784.5" y="-286.3" font-family="Times,serif" font-size="14.00" fill="#000000">script_name :varchar</text>
<text text-anchor="start" x="784.5" y="-271.3" font-family="Times,serif" font-size="14.00" fill="#000000">success :integer</text>
<text text-anchor="start" x="784.5" y="-256.3" font-family="Times,serif" font-size="14.00" fill="#000000">limit_errors :integer</text>
<text text-anchor="start" x="784.5" y="-241.3" font-family="Times,serif" font-size="14.00" fill="#000000">rollbacks :integer</text>
<text text-anchor="start" x="784.5" y="-226.3" font-family="Times,serif" font-size="14.00" fill="#000000">created_at :datetime</text>
<text text-anchor="start" x="784.5" y="-211.3" font-family="Times,serif" font-size="14.00" fill="#000000">updated_at :datetime</text>
</g>
</g>
</svg>
