<?xml version="1.0" encoding="UTF-8" standalone="no"?>
<!DOCTYPE svg PUBLIC "-//W3C//DTD SVG 1.1//EN"
 "http://www.w3.org/Graphics/SVG/1.1/DTD/svg11.dtd">
<!-- Generated by graphviz version 2.40.1 (20161225.0304)
 -->
<!-- Title: models_diagram Pages: 1 -->
<svg width="816pt" height="158pt"
 viewBox="0.00 0.00 816.40 158.00" xmlns="http://www.w3.org/2000/svg" xmlns:xlink="http://www.w3.org/1999/xlink">
<g id="graph0" class="graph" transform="scale(1 1) rotate(0) translate(4 154)">
<title>models_diagram</title>
<polygon fill="transparent" stroke="transparent" points="-4,4 -4,-154 812.3956,-154 812.3956,4 -4,4"/>
<!-- _diagram_info -->
<g id="node1" class="node">
<title>_diagram_info</title>
<text text-anchor="start" x="8" y="-135.6" font-family="Times,serif" font-size="13.00" fill="#000000">Models diagram</text>
<text text-anchor="start" x="8" y="-121.6" font-family="Times,serif" font-size="13.00" fill="#000000">Date: May 14 2020 &#45; 19:24</text>
<text text-anchor="start" x="8" y="-107.6" font-family="Times,serif" font-size="13.00" fill="#000000">Migration version: 20200415083331</text>
<text text-anchor="start" x="8" y="-93.6" font-family="Times,serif" font-size="13.00" fill="#000000">Generated by RailRoady 1.5.3</text>
<text text-anchor="start" x="8" y="-79.6" font-family="Times,serif" font-size="13.00" fill="#000000">http://railroady.prestonlee.com</text>
</g>
<!-- ApplicationRecord -->
<g id="node2" class="node">
<title>ApplicationRecord</title>
<ellipse fill="none" stroke="#000000" cx="309" cy="-111" rx="77.1866" ry="18"/>
<text text-anchor="middle" x="309" y="-107.3" font-family="Times,serif" font-size="14.00" fill="#000000">ApplicationRecord</text>
</g>
<!-- ScriptStep -->
<g id="node3" class="node">
<title>ScriptStep</title>
<ellipse fill="none" stroke="#000000" cx="452" cy="-111" rx="47.3916" ry="18"/>
<text text-anchor="middle" x="452" y="-107.3" font-family="Times,serif" font-size="14.00" fill="#000000">ScriptStep</text>
</g>
<!-- Step -->
<g id="node6" class="node">
<title>Step</title>
<ellipse fill="none" stroke="#000000" cx="452" cy="-18" rx="27" ry="18"/>
<text text-anchor="middle" x="452" y="-14.3" font-family="Times,serif" font-size="14.00" fill="#000000">Step</text>
</g>
<!-- ScriptStep&#45;&gt;Step -->
<g id="edge1" class="edge">
<title>ScriptStep&#45;&gt;Step</title>
<path fill="none" stroke="#633110" d="M452,-84.4432C452,-72.4479 452,-58.268 452,-46.0949"/>
<ellipse fill="none" stroke="#633110" cx="452" cy="-88.6262" rx="4" ry="4"/>
<polygon fill="#633110" stroke="#633110" points="452.0001,-46.0192 456.5,-36.0191 452,-41.0192 452,-36.0192 452,-36.0192 452,-36.0192 452,-41.0192 447.5,-36.0192 452.0001,-46.0192 452.0001,-46.0192"/>
</g>
<!-- AllScriptsDescription -->
<g id="node4" class="node">
<title>AllScriptsDescription</title>
<ellipse fill="none" stroke="#000000" cx="605" cy="-111" rx="87.1846" ry="18"/>
<text text-anchor="middle" x="605" y="-107.3" font-family="Times,serif" font-size="14.00" fill="#000000">AllScriptsDescription</text>
</g>
<!-- ExecScript -->
<g id="node5" class="node">
<title>ExecScript</title>
<ellipse fill="none" stroke="#000000" cx="759" cy="-111" rx="49.2915" ry="18"/>
<text text-anchor="middle" x="759" y="-107.3" font-family="Times,serif" font-size="14.00" fill="#000000">ExecScript</text>
</g>
</g>
</svg>
